<?xml version="1.0" encoding="utf-8"?>
<!-- Generator: Adobe Illustrator 26.5.0, SVG Export Plug-In . SVG Version: 6.00 Build 0)  -->
<svg version="1.1" id="Layer_1" xmlns="http://www.w3.org/2000/svg" xmlns:xlink="http://www.w3.org/1999/xlink" x="0px" y="0px"
	 viewBox="0 0 403 72" style="enable-background:new 0 0 403 72;" xml:space="preserve">
<path d="M403,72l-20.1-31.3c9.3-3.6,14.5-10.6,14.5-19.8c0-12.5-9-20.8-24.5-20.8H344v72h14V12.2h14.5c6.9,0,10.6,2.8,10.6,9.1
	c0,5-3.5,9.5-10.7,9.5h-8.7v12h5.1L386.5,72H403z M330.5,72V59.5h-34.3V41.6h31V29.2h-31V12.5h33.9V0h-47.8v72H330.5L330.5,72z
	 M273.3,72l-26.4-38.2l25-33.8h-16.2l-21.3,29.3H229V0h-14v72h14V41h6.5l21.2,31H273.3L273.3,72z M206.4,72V59.5h-33.1V0h-14v72
	H206.4L206.4,72z M124.9,41.2h-15.6l7.5-22.2h0.6L124.9,41.2L124.9,41.2z M150.4,72L123.7,0H111L84.3,72h14.6l6.5-19H129l6.5,19
	H150.4z M86.8,0H72.6L62.4,47.6L49.4,0H38.1l-13,48.6L14.7,0H0l17.2,72h12.2l14.1-50.6L57.3,72h12.2L86.8,0z"/>
</svg>
